<svg width="2051" height="1222" viewBox="0 0 2051 1222" fill="none" xmlns="http://www.w3.org/2000/svg">
<g clip-path="url(#clip0_2566_625)">
<g opacity="0.8" clip-path="url(#clip1_2566_625)">
<path d="M1899.34 789.264C1899.34 790.784 1898.19 791.923 1896.67 791.923C1895.14 791.923 1894 790.784 1894 789.264C1894 787.745 1895.14 786.605 1896.67 786.605C1898.19 786.605 1899.34 787.872 1899.34 789.264Z" fill="white"/>
<path d="M1922.08 789.264C1922.08 790.784 1920.93 791.923 1919.41 791.923C1917.88 791.923 1916.74 790.784 1916.74 789.264C1916.74 787.745 1917.88 786.605 1919.41 786.605C1920.81 786.605 1922.08 787.872 1922.08 789.264Z" fill="white"/>
<path d="M1944.69 789.264C1944.69 790.784 1943.54 791.923 1942.02 791.923C1940.5 791.923 1939.35 790.784 1939.35 789.264C1939.35 787.745 1940.5 786.605 1942.02 786.605C1943.54 786.605 1944.69 787.872 1944.69 789.264Z" fill="white"/>
<path d="M1967.43 789.264C1967.43 790.784 1966.28 791.923 1964.76 791.923C1963.24 791.923 1962.09 790.784 1962.09 789.264C1962.09 787.745 1963.24 786.605 1964.76 786.605C1966.28 786.605 1967.43 787.872 1967.43 789.264Z" fill="white"/>
<path d="M1990.17 789.264C1990.17 790.784 1989.02 791.923 1987.5 791.923C1985.98 791.923 1984.83 790.784 1984.83 789.264C1984.83 787.745 1985.98 786.605 1987.5 786.605C1988.9 786.605 1990.17 787.872 1990.17 789.264Z" fill="white"/>
<path d="M2012.91 789.264C2012.91 790.784 2011.76 791.923 2010.24 791.923C2008.72 791.923 2007.57 790.784 2007.57 789.264C2007.57 787.745 2008.72 786.605 2010.24 786.605C2011.76 786.605 2012.91 787.872 2012.91 789.264Z" fill="white"/>
<path d="M2035.52 789.264C2035.52 790.784 2034.38 791.923 2032.85 791.923C2031.33 791.923 2030.18 790.784 2030.18 789.264C2030.18 787.745 2031.33 786.605 2032.85 786.605C2034.38 786.605 2035.52 787.872 2035.52 789.264Z" fill="white"/>
<path d="M1899.34 808.131C1899.34 809.65 1898.19 810.79 1896.67 810.79C1895.14 810.79 1894 809.65 1894 808.131C1894 806.611 1895.14 805.472 1896.67 805.472C1898.19 805.472 1899.34 806.611 1899.34 808.131Z" fill="white"/>
<path d="M1922.08 808.131C1922.08 809.65 1920.93 810.79 1919.41 810.79C1917.88 810.79 1916.74 809.65 1916.74 808.131C1916.74 806.611 1917.88 805.472 1919.41 805.472C1920.81 805.472 1922.08 806.611 1922.08 808.131Z" fill="white"/>
<path d="M1944.69 808.131C1944.69 809.65 1943.54 810.79 1942.02 810.79C1940.5 810.79 1939.35 809.65 1939.35 808.131C1939.35 806.611 1940.5 805.472 1942.02 805.472C1943.54 805.472 1944.69 806.611 1944.69 808.131Z" fill="white"/>
<path d="M1967.43 808.131C1967.43 809.65 1966.28 810.79 1964.76 810.79C1963.24 810.79 1962.09 809.65 1962.09 808.131C1962.09 806.611 1963.24 805.472 1964.76 805.472C1966.28 805.472 1967.43 806.611 1967.43 808.131Z" fill="white"/>
<path d="M1990.17 808.131C1990.17 809.65 1989.02 810.79 1987.5 810.79C1985.98 810.79 1984.83 809.65 1984.83 808.131C1984.83 806.611 1985.98 805.472 1987.5 805.472C1988.9 805.472 1990.17 806.611 1990.17 808.131Z" fill="white"/>
<path d="M2012.91 808.131C2012.91 809.65 2011.76 810.79 2010.24 810.79C2008.72 810.79 2007.57 809.65 2007.57 808.131C2007.57 806.611 2008.72 805.472 2010.24 805.472C2011.76 805.472 2012.91 806.611 2012.91 808.131Z" fill="white"/>
<path d="M2035.52 808.131C2035.52 809.65 2034.38 810.79 2032.85 810.79C2031.33 810.79 2030.18 809.65 2030.18 808.131C2030.18 806.611 2031.33 805.472 2032.85 805.472C2034.38 805.472 2035.52 806.611 2035.52 808.131Z" fill="white"/>
<path d="M1899.34 751.659C1899.34 753.178 1898.19 754.318 1896.67 754.318C1895.14 754.318 1894 753.178 1894 751.659C1894 750.14 1895.14 749 1896.67 749C1898.19 749 1899.34 750.14 1899.34 751.659Z" fill="white"/>
<path d="M1922.08 751.659C1922.08 753.178 1920.93 754.318 1919.41 754.318C1917.88 754.318 1916.74 753.178 1916.74 751.659C1916.74 750.14 1917.88 749 1919.41 749C1920.81 749 1922.08 750.14 1922.08 751.659Z" fill="white"/>
<path d="M1944.69 751.659C1944.69 753.178 1943.54 754.318 1942.02 754.318C1940.5 754.318 1939.35 753.178 1939.35 751.659C1939.35 750.14 1940.62 749 1942.02 749C1943.54 749 1944.69 750.14 1944.69 751.659Z" fill="white"/>
<path d="M1967.43 751.659C1967.43 753.178 1966.28 754.318 1964.76 754.318C1963.24 754.318 1962.09 753.178 1962.09 751.659C1962.09 750.14 1963.36 749 1964.76 749C1966.16 749 1967.43 750.14 1967.43 751.659Z" fill="white"/>
<path d="M1990.17 751.659C1990.17 753.178 1989.02 754.318 1987.5 754.318C1985.98 754.318 1984.83 753.178 1984.83 751.659C1984.83 750.14 1985.98 749 1987.5 749C1988.9 749 1990.17 750.14 1990.17 751.659Z" fill="white"/>
<path d="M2012.91 751.659C2012.91 753.178 2011.76 754.318 2010.24 754.318C2008.72 754.318 2007.57 753.178 2007.57 751.659C2007.57 750.14 2008.72 749 2010.24 749C2011.76 749 2012.91 750.14 2012.91 751.659Z" fill="white"/>
<path d="M2035.52 751.659C2035.52 753.178 2034.38 754.318 2032.85 754.318C2031.33 754.318 2030.18 753.178 2030.18 751.659C2030.18 750.14 2031.33 749 2032.85 749C2034.38 749 2035.52 750.14 2035.52 751.659Z" fill="white"/>
<path d="M1899.34 770.525C1899.34 772.045 1898.19 773.184 1896.67 773.184C1895.14 773.184 1894 771.918 1894 770.525C1894 769.006 1895.14 767.866 1896.67 767.866C1898.19 767.866 1899.34 769.006 1899.34 770.525Z" fill="white"/>
<path d="M1922.08 770.525C1922.08 772.045 1920.93 773.184 1919.41 773.184C1917.88 773.184 1916.74 772.045 1916.74 770.525C1916.74 769.006 1917.88 767.866 1919.41 767.866C1920.81 767.866 1922.08 769.006 1922.08 770.525Z" fill="white"/>
<path d="M1944.69 770.525C1944.69 772.045 1943.54 773.184 1942.02 773.184C1940.5 773.184 1939.35 772.045 1939.35 770.525C1939.35 769.006 1940.5 767.866 1942.02 767.866C1943.54 767.866 1944.69 769.006 1944.69 770.525Z" fill="white"/>
<path d="M1967.43 770.525C1967.43 772.045 1966.28 773.184 1964.76 773.184C1963.24 773.184 1962.09 772.045 1962.09 770.525C1962.09 769.006 1963.24 767.866 1964.76 767.866C1966.28 767.866 1967.43 769.006 1967.43 770.525Z" fill="white"/>
<path d="M1990.17 770.525C1990.17 772.045 1989.02 773.184 1987.5 773.184C1985.98 773.184 1984.83 772.045 1984.83 770.525C1984.83 769.006 1985.98 767.866 1987.5 767.866C1988.9 767.866 1990.17 769.006 1990.17 770.525Z" fill="white"/>
<path d="M2012.91 770.525C2012.91 772.045 2011.76 773.184 2010.24 773.184C2008.72 773.184 2007.57 772.045 2007.57 770.525C2007.57 769.006 2008.72 767.866 2010.24 767.866C2011.76 767.866 2012.91 769.006 2012.91 770.525Z" fill="white"/>
<path d="M2035.52 770.525C2035.52 772.045 2034.38 773.184 2032.85 773.184C2031.33 773.184 2030.18 772.045 2030.18 770.525C2030.18 769.006 2031.33 767.866 2032.85 767.866C2034.38 767.866 2035.52 769.006 2035.52 770.525Z" fill="white"/>
<path d="M1899.34 826.87C1899.34 828.389 1898.19 829.529 1896.67 829.529C1895.14 829.529 1894 828.389 1894 826.87C1894 825.35 1895.14 824.211 1896.67 824.211C1898.19 824.211 1899.34 825.477 1899.34 826.87Z" fill="white"/>
<path d="M1922.08 826.87C1922.08 828.389 1920.93 829.529 1919.41 829.529C1917.88 829.529 1916.74 828.389 1916.74 826.87C1916.74 825.35 1917.88 824.211 1919.41 824.211C1920.81 824.211 1922.08 825.477 1922.08 826.87Z" fill="white"/>
<path d="M1944.69 826.87C1944.69 828.389 1943.54 829.529 1942.02 829.529C1940.5 829.529 1939.35 828.389 1939.35 826.87C1939.35 825.35 1940.5 824.211 1942.02 824.211C1943.54 824.211 1944.69 825.477 1944.69 826.87Z" fill="white"/>
<path d="M1967.43 826.87C1967.43 828.389 1966.28 829.529 1964.76 829.529C1963.24 829.529 1962.09 828.389 1962.09 826.87C1962.09 825.35 1963.24 824.211 1964.76 824.211C1966.28 824.211 1967.43 825.477 1967.43 826.87Z" fill="white"/>
<path d="M1990.17 826.87C1990.17 828.389 1989.02 829.529 1987.5 829.529C1985.98 829.529 1984.83 828.389 1984.83 826.87C1984.83 825.35 1985.98 824.211 1987.5 824.211C1988.9 824.211 1990.17 825.477 1990.17 826.87Z" fill="white"/>
<path d="M2012.91 826.87C2012.91 828.389 2011.76 829.529 2010.24 829.529C2008.72 829.529 2007.57 828.389 2007.57 826.87C2007.57 825.35 2008.72 824.211 2010.24 824.211C2011.76 824.211 2012.91 825.477 2012.91 826.87Z" fill="white"/>
<path d="M2035.52 826.87C2035.52 828.389 2034.38 829.529 2032.85 829.529C2031.33 829.529 2030.18 828.389 2030.18 826.87C2030.18 825.35 2031.33 824.211 2032.85 824.211C2034.38 824.211 2035.52 825.477 2035.52 826.87Z" fill="white"/>
<path d="M1899.34 845.736C1899.34 847.256 1898.19 848.395 1896.67 848.395C1895.14 848.395 1894 847.256 1894 845.736C1894 844.217 1895.14 843.077 1896.67 843.077C1898.19 843.077 1899.34 844.217 1899.34 845.736Z" fill="white"/>
<path d="M1922.08 845.736C1922.08 847.256 1920.93 848.395 1919.41 848.395C1917.88 848.395 1916.74 847.256 1916.74 845.736C1916.74 844.217 1917.88 843.077 1919.41 843.077C1920.81 843.077 1922.08 844.217 1922.08 845.736Z" fill="white"/>
<path d="M1944.69 845.736C1944.69 847.256 1943.54 848.395 1942.02 848.395C1940.5 848.395 1939.35 847.256 1939.35 845.736C1939.35 844.217 1940.5 843.077 1942.02 843.077C1943.54 843.077 1944.69 844.217 1944.69 845.736Z" fill="white"/>
<path d="M1964.76 848.395C1966.23 848.395 1967.43 847.205 1967.43 845.736C1967.43 844.268 1966.23 843.077 1964.76 843.077C1963.29 843.077 1962.09 844.268 1962.09 845.736C1962.09 847.205 1963.29 848.395 1964.76 848.395Z" fill="white"/>
<path d="M1990.17 845.736C1990.17 847.256 1989.02 848.395 1987.5 848.395C1985.98 848.395 1984.83 847.256 1984.83 845.736C1984.83 844.217 1985.98 843.077 1987.5 843.077C1988.9 843.077 1990.17 844.217 1990.17 845.736Z" fill="white"/>
<path d="M2012.91 845.736C2012.91 847.256 2011.76 848.395 2010.24 848.395C2008.72 848.395 2007.57 847.256 2007.57 845.736C2007.57 844.217 2008.72 843.077 2010.24 843.077C2011.76 843.077 2012.91 844.217 2012.91 845.736Z" fill="white"/>
<path d="M2035.52 845.736C2035.52 847.256 2034.38 848.395 2032.85 848.395C2031.33 848.395 2030.18 847.256 2030.18 845.736C2030.18 844.217 2031.33 843.077 2032.85 843.077C2034.38 843.077 2035.52 844.217 2035.52 845.736Z" fill="white"/>
<path d="M1899.34 864.601C1899.34 866.121 1898.19 867.26 1896.67 867.26C1895.14 867.26 1894 866.121 1894 864.601C1894 863.082 1895.14 861.942 1896.67 861.942C1898.19 861.942 1899.34 863.082 1899.34 864.601Z" fill="white"/>
<path d="M1922.08 864.601C1922.08 866.121 1920.93 867.26 1919.41 867.26C1917.88 867.26 1916.74 866.121 1916.74 864.601C1916.74 863.082 1917.88 861.942 1919.41 861.942C1920.81 861.942 1922.08 863.082 1922.08 864.601Z" fill="white"/>
<path d="M1944.69 864.601C1944.69 866.121 1943.54 867.26 1942.02 867.26C1940.5 867.26 1939.35 866.121 1939.35 864.601C1939.35 863.082 1940.5 861.942 1942.02 861.942C1943.54 861.942 1944.69 863.082 1944.69 864.601Z" fill="white"/>
<path d="M1967.43 864.601C1967.43 866.121 1966.28 867.26 1964.76 867.26C1963.24 867.26 1962.09 866.121 1962.09 864.601C1962.09 863.082 1963.24 861.942 1964.76 861.942C1966.28 861.942 1967.43 863.082 1967.43 864.601Z" fill="white"/>
<path d="M1990.17 864.601C1990.17 866.121 1989.02 867.26 1987.5 867.26C1985.98 867.26 1984.83 866.121 1984.83 864.601C1984.83 863.082 1985.98 861.942 1987.5 861.942C1988.9 861.942 1990.17 863.082 1990.17 864.601Z" fill="white"/>
<path d="M2012.91 864.601C2012.91 866.121 2011.76 867.26 2010.24 867.26C2008.72 867.26 2007.57 866.121 2007.57 864.601C2007.57 863.082 2008.72 861.942 2010.24 861.942C2011.76 861.942 2012.91 863.082 2012.91 864.601Z" fill="white"/>
<path d="M2035.52 864.601C2035.52 866.121 2034.38 867.26 2032.85 867.26C2031.33 867.26 2030.18 866.121 2030.18 864.601C2030.18 863.082 2031.33 861.942 2032.85 861.942C2034.38 861.942 2035.52 863.082 2035.52 864.601Z" fill="white"/>
<path d="M1899.34 883.341C1899.34 884.86 1898.19 886 1896.67 886C1895.14 886 1894 884.86 1894 883.341C1894 881.821 1895.14 880.682 1896.67 880.682C1898.19 880.682 1899.34 881.948 1899.34 883.341Z" fill="white"/>
<path d="M1922.08 883.341C1922.08 884.86 1920.93 886 1919.41 886C1917.88 886 1916.74 884.86 1916.74 883.341C1916.74 881.821 1917.88 880.682 1919.41 880.682C1920.81 880.682 1922.08 881.948 1922.08 883.341Z" fill="white"/>
<path d="M1944.69 883.341C1944.69 884.86 1943.54 886 1942.02 886C1940.5 886 1939.35 884.86 1939.35 883.341C1939.35 881.821 1940.5 880.682 1942.02 880.682C1943.54 880.682 1944.69 881.948 1944.69 883.341Z" fill="white"/>
<path d="M1967.43 883.341C1967.43 884.86 1966.28 886 1964.76 886C1963.24 886 1962.09 884.86 1962.09 883.341C1962.09 881.821 1963.24 880.682 1964.76 880.682C1966.28 880.682 1967.43 881.948 1967.43 883.341Z" fill="white"/>
<path d="M1990.17 883.341C1990.17 884.86 1989.02 886 1987.5 886C1985.98 886 1984.83 884.86 1984.83 883.341C1984.83 881.821 1985.98 880.682 1987.5 880.682C1988.9 880.682 1990.17 881.948 1990.17 883.341Z" fill="white"/>
<path d="M2012.91 883.341C2012.91 884.86 2011.76 886 2010.24 886C2008.72 886 2007.57 884.86 2007.57 883.341C2007.57 881.821 2008.72 880.682 2010.24 880.682C2011.76 880.682 2012.91 881.948 2012.91 883.341Z" fill="white"/>
<path d="M2035.52 883.341C2035.52 884.86 2034.38 886 2032.85 886C2031.33 886 2030.18 884.86 2030.18 883.341C2030.18 881.821 2031.33 880.682 2032.85 880.682C2034.38 880.682 2035.52 881.948 2035.52 883.341Z" fill="white"/>
</g>
<g opacity="0.3">
<path d="M1892.81 75.2212L1902.47 84.8799L1876.78 110.563L1851.1 84.8799L1860.68 75.2943L1876.71 91.319L1892.81 75.2212Z" fill="white"/>
<path d="M1892.81 40.5386L1902.39 50.1241L1876.71 75.8075L1851.1 50.1973L1860.76 40.5386L1876.78 56.5632L1892.81 40.5386Z" fill="white"/>
<path d="M1892.73 5.78067L1902.39 15.4394L1876.78 41.0496L1851.1 15.3662L1860.68 5.78067L1876.71 21.8054L1892.73 5.78067Z" fill="white"/>
<path d="M1892.81 -28.9761L1902.47 -19.3174L1876.78 6.36601L1851.1 -19.3174L1860.76 -28.9761L1876.78 -12.9514L1892.81 -28.9761Z" fill="white"/>
</g>
<path opacity="0.3" d="M921 808.553C907.071 822.482 884.377 822.482 870.447 808.553C856.518 794.623 856.518 771.929 870.447 758L921 808.553Z" fill="white"/>
<g opacity="0.3">
<path d="M975.486 529.89C986.205 529.89 994.937 521.165 994.937 510.453C994.937 499.742 986.205 491.017 975.486 491.017L975.486 529.89Z" fill="white"/>
<path d="M945.141 529.89C955.861 529.89 964.592 521.165 964.592 510.453C964.592 499.742 955.861 491.017 945.141 491.017L945.141 529.89Z" fill="white"/>
<path d="M914.797 529.89C925.516 529.89 934.248 521.165 934.248 510.453C934.248 499.742 925.516 491.017 914.797 491.017L914.797 529.89Z" fill="white"/>
</g>
<g opacity="0.3">
<path d="M273.301 144.921L273.301 133L305 133L305 164.699L293.169 164.699L293.169 144.921L273.301 144.921Z" fill="white"/>
<path d="M251.899 166.325L251.899 154.494L283.598 154.494L283.598 186.103L271.677 186.103L271.677 166.325L251.899 166.325Z" fill="white"/>
<path d="M230.495 187.819L230.495 175.898L262.104 175.898L262.104 207.597L250.273 207.597L250.273 187.819L230.495 187.819Z" fill="white"/>
<path d="M209.001 209.222L209.001 197.301L240.7 197.301L240.7 229L228.779 229L228.779 209.222L209.001 209.222Z" fill="white"/>
</g>
</g>
<g opacity="0.2" clip-path="url(#clip2_2566_625)">
<path d="M142.097 938C63.5443 938 0 1001.54 0 1080.1C0 1158.46 63.5443 1222.19 142.097 1222.19C220.456 1222.19 284.195 1158.65 284.195 1080.1C284 1001.54 220.456 938 142.097 938ZM142.097 1213.03C68.6122 1213.03 9.16129 1153.58 9.16129 1080.1C9.16129 1006.61 68.6122 947.161 142.097 947.161C215.583 947.161 275.034 1006.61 275.034 1080.1C275.034 1153.39 215.388 1213.03 142.097 1213.03Z" fill="white"/>
<path d="M142.099 968.603C80.6986 968.603 30.7988 1018.5 30.7988 1079.9C30.7988 1141.3 80.6986 1191.2 142.099 1191.2C203.499 1191.2 253.399 1141.5 253.399 1080.1C253.399 1018.5 203.499 968.603 142.099 968.603ZM142.099 1174.24C90.0548 1174.24 47.757 1131.95 47.757 1079.9C47.757 1027.86 90.0548 985.561 142.099 985.561C194.143 985.561 236.441 1027.86 236.441 1079.9C236.441 1131.95 194.143 1174.24 142.099 1174.24Z" fill="white"/>
<path d="M142.098 1017.53C107.597 1017.53 79.5283 1045.6 79.5283 1080.1C79.5283 1114.6 107.402 1142.67 142.098 1142.67C176.599 1142.67 204.668 1114.6 204.668 1080.1C204.473 1045.6 176.599 1017.53 142.098 1017.53ZM142.098 1113.62C123.58 1113.62 108.572 1098.61 108.572 1080.1C108.572 1061.58 123.58 1046.57 142.098 1046.57C160.616 1046.57 175.624 1061.58 175.624 1080.1C175.624 1098.61 160.616 1113.62 142.098 1113.62Z" fill="white"/>
</g>
<defs>
<clipPath id="clip0_2566_625">
<rect width="1924" height="1080" fill="white" transform="translate(127)"/>
</clipPath>
<clipPath id="clip1_2566_625">
<rect width="187" height="137" fill="white" transform="translate(1894 749)"/>
</clipPath>
<clipPath id="clip2_2566_625">
<rect width="284" height="284" fill="white" transform="translate(0 938)"/>
</clipPath>
</defs>
</svg>
