<svg width="140" height="115" viewBox="0 0 140 115" fill="none" xmlns="http://www.w3.org/2000/svg">
<path d="M3.98149 33.7043C3.98149 34.9762 3.12831 35.9301 1.99074 35.9301C0.853175 35.9301 0 34.9762 0 33.7043C0 32.4324 0.853175 31.4785 1.99074 31.4785C3.12831 31.4785 3.98149 32.5384 3.98149 33.7043Z" fill="#FFCF2D"/>
<path d="M20.9502 33.7042C20.9502 34.9761 20.0971 35.9299 18.9595 35.9299C17.8219 35.9299 16.9688 34.9761 16.9688 33.7042C16.9688 32.4324 17.8219 31.4785 18.9595 31.4785C20.0023 31.4785 20.9502 32.5384 20.9502 33.7042Z" fill="#FFCF2D"/>
<path d="M37.8243 33.7043C37.8243 34.9762 36.9711 35.9301 35.8335 35.9301C34.6959 35.9301 33.8428 34.9762 33.8428 33.7043C33.8428 32.4324 34.6959 31.4785 35.8335 31.4785C36.9711 31.4785 37.8243 32.5384 37.8243 33.7043Z" fill="#FFCF2D"/>
<path d="M54.793 33.7043C54.793 34.9762 53.9398 35.9301 52.8023 35.9301C51.6647 35.9301 50.8115 34.9762 50.8115 33.7043C50.8115 32.4324 51.6647 31.4785 52.8023 31.4785C53.9398 31.4785 54.793 32.5384 54.793 33.7043Z" fill="#FFCF2D"/>
<path d="M71.7617 33.7043C71.7617 34.9762 70.9086 35.9301 69.771 35.9301C68.6334 35.9301 67.7803 34.9762 67.7803 33.7043C67.7803 32.4324 68.6334 31.4785 69.771 31.4785C70.8138 31.4785 71.7617 32.5384 71.7617 33.7043Z" fill="#FFCF2D"/>
<path d="M88.7305 33.7043C88.7305 34.9762 87.8773 35.9301 86.7398 35.9301C85.6022 35.9301 84.749 34.9762 84.749 33.7043C84.749 32.4324 85.6022 31.4785 86.7398 31.4785C87.8773 31.4785 88.7305 32.5384 88.7305 33.7043Z" fill="#FFCF2D"/>
<path d="M105.604 33.7043C105.604 34.9762 104.751 35.9301 103.613 35.9301C102.476 35.9301 101.623 34.9762 101.623 33.7043C101.623 32.4324 102.476 31.4785 103.613 31.4785C104.751 31.4785 105.604 32.5384 105.604 33.7043Z" fill="#FFCF2D"/>
<path d="M122.573 33.7043C122.573 34.9762 121.72 35.9301 120.582 35.9301C119.444 35.9301 118.591 34.9762 118.591 33.7043C118.591 32.4324 119.444 31.4785 120.582 31.4785C121.72 31.4785 122.573 32.5384 122.573 33.7043Z" fill="#FFCF2D"/>
<path d="M139.542 33.7042C139.542 34.9761 138.688 35.9299 137.551 35.9299C136.413 35.9299 135.56 34.9761 135.56 33.7042C135.56 32.4324 136.413 31.4785 137.551 31.4785C138.594 31.4785 139.542 32.5384 139.542 33.7042Z" fill="#FFCF2D"/>
<path d="M3.98149 49.4974C3.98149 50.7693 3.12831 51.7233 1.99074 51.7233C0.853175 51.7233 0 50.7693 0 49.4974C0 48.2254 0.853175 47.2715 1.99074 47.2715C3.12831 47.2715 3.98149 48.2254 3.98149 49.4974Z" fill="#FFCF2D"/>
<path d="M20.9502 49.4973C20.9502 50.7692 20.0971 51.7231 18.9595 51.7231C17.8219 51.7231 16.9688 50.7692 16.9688 49.4973C16.9688 48.2254 17.8219 47.2715 18.9595 47.2715C20.0023 47.2715 20.9502 48.2254 20.9502 49.4973Z" fill="#FFCF2D"/>
<path d="M37.8243 49.4974C37.8243 50.7693 36.9711 51.7233 35.8335 51.7233C34.6959 51.7233 33.8428 50.7693 33.8428 49.4974C33.8428 48.2254 34.6959 47.2715 35.8335 47.2715C36.9711 47.2715 37.8243 48.2254 37.8243 49.4974Z" fill="#FFCF2D"/>
<path d="M54.793 49.4974C54.793 50.7693 53.9398 51.7233 52.8023 51.7233C51.6647 51.7233 50.8115 50.7693 50.8115 49.4974C50.8115 48.2254 51.6647 47.2715 52.8023 47.2715C53.9398 47.2715 54.793 48.2254 54.793 49.4974Z" fill="#FFCF2D"/>
<path d="M71.7618 49.4974C71.7618 50.7693 70.9086 51.7233 69.771 51.7233C68.6334 51.7233 67.7803 50.7693 67.7803 49.4974C67.7803 48.2254 68.6334 47.2715 69.771 47.2715C70.8138 47.2715 71.7618 48.2254 71.7618 49.4974Z" fill="#FFCF2D"/>
<path d="M88.7305 49.4974C88.7305 50.7693 87.8773 51.7233 86.7398 51.7233C85.6022 51.7233 84.749 50.7693 84.749 49.4974C84.749 48.2254 85.6022 47.2715 86.7398 47.2715C87.8773 47.2715 88.7305 48.2254 88.7305 49.4974Z" fill="#FFCF2D"/>
<path d="M105.604 49.4974C105.604 50.7693 104.751 51.7233 103.613 51.7233C102.476 51.7233 101.623 50.7693 101.623 49.4974C101.623 48.2254 102.476 47.2715 103.613 47.2715C104.751 47.2715 105.604 48.2254 105.604 49.4974Z" fill="#FFCF2D"/>
<path d="M122.573 49.4974C122.573 50.7693 121.72 51.7233 120.582 51.7233C119.444 51.7233 118.591 50.7693 118.591 49.4974C118.591 48.2254 119.444 47.2715 120.582 47.2715C121.72 47.2715 122.573 48.2254 122.573 49.4974Z" fill="#FFCF2D"/>
<path d="M139.542 49.4973C139.542 50.7692 138.688 51.7231 137.551 51.7231C136.413 51.7231 135.56 50.7692 135.56 49.4973C135.56 48.2254 136.413 47.2715 137.551 47.2715C138.594 47.2715 139.542 48.2254 139.542 49.4973Z" fill="#FFCF2D"/>
<path d="M3.98149 2.22583C3.98149 3.49773 3.12831 4.45166 1.99074 4.45166C0.853175 4.45166 0 3.49773 0 2.22583C0 0.953927 0.853175 0 1.99074 0C3.12831 0 3.98149 0.953927 3.98149 2.22583Z" fill="#FFCF2D"/>
<path d="M20.9502 2.22583C20.9502 3.49773 20.0971 4.45166 18.9595 4.45166C17.8219 4.45166 16.9688 3.49773 16.9688 2.22583C16.9688 0.953927 17.8219 0 18.9595 0C20.0023 0 20.9502 0.953927 20.9502 2.22583Z" fill="#FFCF2D"/>
<path d="M37.8243 2.22583C37.8243 3.49773 36.9711 4.45166 35.8335 4.45166C34.6959 4.45166 33.8428 3.49773 33.8428 2.22583C33.8428 0.953927 34.7907 0 35.8335 0C36.9711 0 37.8243 0.953927 37.8243 2.22583Z" fill="#FFCF2D"/>
<path d="M54.793 2.22583C54.793 3.49773 53.9398 4.45166 52.8023 4.45166C51.6647 4.45166 50.8115 3.49773 50.8115 2.22583C50.8115 0.953927 51.7595 0 52.8023 0C53.845 0 54.793 0.953927 54.793 2.22583Z" fill="#FFCF2D"/>
<path d="M71.7617 2.22583C71.7617 3.49773 70.9086 4.45166 69.771 4.45166C68.6334 4.45166 67.7803 3.49773 67.7803 2.22583C67.7803 0.953927 68.6334 0 69.771 0C70.8138 0 71.7617 0.953927 71.7617 2.22583Z" fill="#FFCF2D"/>
<path d="M88.7305 2.22583C88.7305 3.49773 87.8773 4.45166 86.7398 4.45166C85.6022 4.45166 84.749 3.49773 84.749 2.22583C84.749 0.953927 85.6022 0 86.7398 0C87.8773 0 88.7305 0.953927 88.7305 2.22583Z" fill="#FFCF2D"/>
<path d="M105.604 2.22577C105.604 3.49764 104.751 4.45154 103.613 4.45154C102.476 4.45154 101.623 3.49764 101.623 2.22577C101.623 0.953901 102.476 0 103.613 0C104.751 0 105.604 0.953901 105.604 2.22577Z" fill="#FFCF2D"/>
<path d="M122.573 2.22583C122.573 3.49773 121.72 4.45166 120.583 4.45166C119.445 4.45166 118.592 3.49773 118.592 2.22583C118.592 0.953927 119.445 0 120.583 0C121.72 0 122.573 0.953927 122.573 2.22583Z" fill="#FFCF2D"/>
<path d="M139.542 2.22583C139.542 3.49773 138.688 4.45166 137.551 4.45166C136.413 4.45166 135.56 3.49773 135.56 2.22583C135.56 0.953927 136.413 0 137.551 0C138.594 0 139.542 0.953927 139.542 2.22583Z" fill="#FFCF2D"/>
<path d="M3.9815 18.0189C3.9815 19.2908 3.12832 20.2448 1.99075 20.2448C0.853179 20.2448 0 19.1848 0 18.0189C0 16.7469 0.853179 15.793 1.99075 15.793C3.12832 15.793 3.9815 16.7469 3.9815 18.0189Z" fill="#FFCF2D"/>
<path d="M20.9502 18.0189C20.9502 19.2908 20.0971 20.2448 18.9595 20.2448C17.8219 20.2448 16.9688 19.2908 16.9688 18.0189C16.9688 16.7469 17.8219 15.793 18.9595 15.793C20.0023 15.793 20.9502 16.7469 20.9502 18.0189Z" fill="#FFCF2D"/>
<path d="M37.8243 18.0189C37.8243 19.2908 36.9711 20.2448 35.8335 20.2448C34.6959 20.2448 33.8428 19.2908 33.8428 18.0189C33.8428 16.7469 34.6959 15.793 35.8335 15.793C36.9711 15.793 37.8243 16.7469 37.8243 18.0189Z" fill="#FFCF2D"/>
<path d="M54.793 18.0188C54.793 19.2907 53.9398 20.2446 52.8023 20.2446C51.6647 20.2446 50.8115 19.2907 50.8115 18.0188C50.8115 16.7469 51.6647 15.793 52.8023 15.793C53.9398 15.793 54.793 16.7469 54.793 18.0188Z" fill="#FFCF2D"/>
<path d="M71.7618 18.0189C71.7618 19.2908 70.9086 20.2448 69.771 20.2448C68.6334 20.2448 67.7803 19.2908 67.7803 18.0189C67.7803 16.7469 68.6334 15.793 69.771 15.793C70.8138 15.793 71.7618 16.7469 71.7618 18.0189Z" fill="#FFCF2D"/>
<path d="M88.7305 18.0189C88.7305 19.2908 87.8773 20.2448 86.7398 20.2448C85.6022 20.2448 84.749 19.2908 84.749 18.0189C84.749 16.7469 85.6022 15.793 86.7398 15.793C87.8773 15.793 88.7305 16.7469 88.7305 18.0189Z" fill="#FFCF2D"/>
<path d="M105.604 18.0189C105.604 19.2908 104.751 20.2448 103.613 20.2448C102.476 20.2448 101.623 19.2908 101.623 18.0189C101.623 16.7469 102.476 15.793 103.613 15.793C104.751 15.793 105.604 16.7469 105.604 18.0189Z" fill="#FFCF2D"/>
<path d="M122.573 18.0189C122.573 19.2908 121.72 20.2448 120.582 20.2448C119.444 20.2448 118.591 19.2908 118.591 18.0189C118.591 16.7469 119.444 15.793 120.582 15.793C121.72 15.793 122.573 16.7469 122.573 18.0189Z" fill="#FFCF2D"/>
<path d="M139.542 18.0189C139.542 19.2908 138.688 20.2448 137.551 20.2448C136.413 20.2448 135.56 19.2908 135.56 18.0189C135.56 16.7469 136.413 15.793 137.551 15.793C138.594 15.793 139.542 16.7469 139.542 18.0189Z" fill="#FFCF2D"/>
<path d="M3.98149 65.1848C3.98149 66.4566 3.12831 67.4105 1.99074 67.4105C0.853175 67.4105 0 66.4566 0 65.1848C0 63.9129 0.853175 62.959 1.99074 62.959C3.12831 62.959 3.98149 64.0189 3.98149 65.1848Z" fill="#FFCF2D"/>
<path d="M20.9503 65.1847C20.9503 66.4565 20.0971 67.4104 18.9595 67.4104C17.8219 67.4104 16.9688 66.4565 16.9688 65.1847C16.9688 63.9129 17.8219 62.959 18.9595 62.959C20.0023 62.959 20.9503 64.0188 20.9503 65.1847Z" fill="#FFCF2D"/>
<path d="M37.8243 65.1848C37.8243 66.4566 36.9711 67.4105 35.8335 67.4105C34.6959 67.4105 33.8428 66.4566 33.8428 65.1848C33.8428 63.9129 34.6959 62.959 35.8335 62.959C36.9711 62.959 37.8243 64.0189 37.8243 65.1848Z" fill="#FFCF2D"/>
<path d="M54.793 65.1848C54.793 66.4566 53.9398 67.4105 52.8023 67.4105C51.6647 67.4105 50.8115 66.4566 50.8115 65.1848C50.8115 63.9129 51.6647 62.959 52.8023 62.959C53.9398 62.959 54.793 64.0189 54.793 65.1848Z" fill="#FFCF2D"/>
<path d="M71.7618 65.1848C71.7618 66.4566 70.9086 67.4105 69.771 67.4105C68.6334 67.4105 67.7803 66.4566 67.7803 65.1848C67.7803 63.9129 68.6334 62.959 69.771 62.959C70.8138 62.959 71.7618 64.0189 71.7618 65.1848Z" fill="#FFCF2D"/>
<path d="M88.7305 65.1848C88.7305 66.4566 87.8773 67.4105 86.7398 67.4105C85.6022 67.4105 84.749 66.4566 84.749 65.1848C84.749 63.9129 85.6022 62.959 86.7398 62.959C87.8773 62.959 88.7305 64.0189 88.7305 65.1848Z" fill="#FFCF2D"/>
<path d="M105.604 65.1848C105.604 66.4566 104.751 67.4105 103.613 67.4105C102.476 67.4105 101.623 66.4566 101.623 65.1848C101.623 63.9129 102.476 62.959 103.613 62.959C104.751 62.959 105.604 64.0189 105.604 65.1848Z" fill="#FFCF2D"/>
<path d="M122.573 65.1848C122.573 66.4566 121.72 67.4105 120.582 67.4105C119.444 67.4105 118.591 66.4566 118.591 65.1848C118.591 63.9129 119.444 62.959 120.582 62.959C121.72 62.959 122.573 64.0189 122.573 65.1848Z" fill="#FFCF2D"/>
<path d="M139.542 65.1847C139.542 66.4565 138.688 67.4104 137.551 67.4104C136.413 67.4104 135.56 66.4565 135.56 65.1847C135.56 63.9129 136.413 62.959 137.551 62.959C138.594 62.959 139.542 64.0188 139.542 65.1847Z" fill="#FFCF2D"/>
<path d="M3.98149 80.9776C3.98149 82.2494 3.12831 83.2032 1.99074 83.2032C0.853175 83.2032 0 82.2494 0 80.9776C0 79.7058 0.853175 78.752 1.99074 78.752C3.12831 78.752 3.98149 79.7058 3.98149 80.9776Z" fill="#FFCF2D"/>
<path d="M20.9502 80.9777C20.9502 82.2495 20.0971 83.2034 18.9595 83.2034C17.8219 83.2034 16.9688 82.2495 16.9688 80.9777C16.9688 79.7058 17.8219 78.752 18.9595 78.752C20.0023 78.752 20.9502 79.7058 20.9502 80.9777Z" fill="#FFCF2D"/>
<path d="M37.8243 80.9777C37.8243 82.2495 36.9711 83.2034 35.8335 83.2034C34.6959 83.2034 33.8428 82.2495 33.8428 80.9777C33.8428 79.7058 34.6959 78.752 35.8335 78.752C36.9711 78.752 37.8243 79.7058 37.8243 80.9777Z" fill="#FFCF2D"/>
<path d="M52.8023 83.2034C53.9017 83.2034 54.793 82.2069 54.793 80.9777C54.793 79.7484 53.9017 78.752 52.8023 78.752C51.7028 78.752 50.8115 79.7484 50.8115 80.9777C50.8115 82.2069 51.7028 83.2034 52.8023 83.2034Z" fill="#FFCF2D"/>
<path d="M71.7618 80.9777C71.7618 82.2495 70.9086 83.2034 69.771 83.2034C68.6334 83.2034 67.7803 82.2495 67.7803 80.9777C67.7803 79.7058 68.6334 78.752 69.771 78.752C70.8138 78.752 71.7618 79.7058 71.7618 80.9777Z" fill="#FFCF2D"/>
<path d="M88.7305 80.9777C88.7305 82.2495 87.8773 83.2034 86.7398 83.2034C85.6022 83.2034 84.749 82.2495 84.749 80.9777C84.749 79.7058 85.6022 78.752 86.7398 78.752C87.8773 78.752 88.7305 79.7058 88.7305 80.9777Z" fill="#FFCF2D"/>
<path d="M105.604 80.9777C105.604 82.2495 104.751 83.2034 103.613 83.2034C102.476 83.2034 101.623 82.2495 101.623 80.9777C101.623 79.7058 102.476 78.752 103.613 78.752C104.751 78.752 105.604 79.7058 105.604 80.9777Z" fill="#FFCF2D"/>
<path d="M120.582 83.2032C121.682 83.2032 122.573 82.2068 122.573 80.9776C122.573 79.7484 121.682 78.752 120.582 78.752C119.483 78.752 118.591 79.7484 118.591 80.9776C118.591 82.2068 119.483 83.2032 120.582 83.2032Z" fill="#FFCF2D"/>
<path d="M139.542 80.9777C139.542 82.2495 138.689 83.2034 137.551 83.2034C136.414 83.2034 135.561 82.2495 135.561 80.9777C135.561 79.7058 136.414 78.752 137.551 78.752C138.594 78.752 139.542 79.7058 139.542 80.9777Z" fill="#FFCF2D"/>
<path d="M3.9815 96.7689C3.9815 98.0408 3.12832 98.9948 1.99075 98.9948C0.853179 98.9948 0 98.0408 0 96.7689C0 95.4969 0.853179 94.543 1.99075 94.543C3.12832 94.543 3.9815 95.4969 3.9815 96.7689Z" fill="#FFCF2D"/>
<path d="M20.9502 96.7689C20.9502 98.0408 20.0971 98.9948 18.9595 98.9948C17.8219 98.9948 16.9688 98.0408 16.9688 96.7689C16.9688 95.4969 17.8219 94.543 18.9595 94.543C20.0023 94.543 20.9502 95.4969 20.9502 96.7689Z" fill="#FFCF2D"/>
<path d="M37.8243 96.7689C37.8243 98.0408 36.9711 98.9948 35.8335 98.9948C34.6959 98.9948 33.8428 98.0408 33.8428 96.7689C33.8428 95.4969 34.6959 94.543 35.8335 94.543C36.9711 94.543 37.8243 95.4969 37.8243 96.7689Z" fill="#FFCF2D"/>
<path d="M54.793 96.7689C54.793 98.0408 53.9398 98.9948 52.8023 98.9948C51.6647 98.9948 50.8115 98.0408 50.8115 96.7689C50.8115 95.4969 51.6647 94.543 52.8023 94.543C53.9398 94.543 54.793 95.4969 54.793 96.7689Z" fill="#FFCF2D"/>
<path d="M71.7618 96.7689C71.7618 98.0408 70.9086 98.9948 69.771 98.9948C68.6334 98.9948 67.7803 98.0408 67.7803 96.7689C67.7803 95.4969 68.6334 94.543 69.771 94.543C70.8138 94.543 71.7618 95.4969 71.7618 96.7689Z" fill="#FFCF2D"/>
<path d="M88.7305 96.7689C88.7305 98.0408 87.8773 98.9948 86.7398 98.9948C85.6022 98.9948 84.749 98.0408 84.749 96.7689C84.749 95.4969 85.6022 94.543 86.7398 94.543C87.8773 94.543 88.7305 95.4969 88.7305 96.7689Z" fill="#FFCF2D"/>
<path d="M105.604 96.7689C105.604 98.0408 104.751 98.9948 103.613 98.9948C102.476 98.9948 101.623 98.0408 101.623 96.7689C101.623 95.4969 102.476 94.543 103.613 94.543C104.751 94.543 105.604 95.4969 105.604 96.7689Z" fill="#FFCF2D"/>
<path d="M122.573 96.7689C122.573 98.0408 121.72 98.9948 120.582 98.9948C119.444 98.9948 118.591 98.0408 118.591 96.7689C118.591 95.4969 119.444 94.543 120.582 94.543C121.72 94.543 122.573 95.4969 122.573 96.7689Z" fill="#FFCF2D"/>
<path d="M139.542 96.7689C139.542 98.0408 138.688 98.9948 137.551 98.9948C136.413 98.9948 135.56 98.0408 135.56 96.7689C135.56 95.4969 136.413 94.543 137.551 94.543C138.594 94.543 139.542 95.4969 139.542 96.7689Z" fill="#FFCF2D"/>
<path d="M3.98149 112.456C3.98149 113.728 3.12831 114.682 1.99074 114.682C0.853175 114.682 0 113.728 0 112.456C0 111.184 0.853175 110.23 1.99074 110.23C3.12831 110.23 3.98149 111.29 3.98149 112.456Z" fill="#FFCF2D"/>
<path d="M20.9502 112.456C20.9502 113.728 20.0971 114.682 18.9595 114.682C17.8219 114.682 16.9688 113.728 16.9688 112.456C16.9688 111.184 17.8219 110.23 18.9595 110.23C20.0023 110.23 20.9502 111.29 20.9502 112.456Z" fill="#FFCF2D"/>
<path d="M37.8243 112.456C37.8243 113.728 36.9711 114.682 35.8335 114.682C34.6959 114.682 33.8428 113.728 33.8428 112.456C33.8428 111.184 34.6959 110.23 35.8335 110.23C36.9711 110.23 37.8243 111.29 37.8243 112.456Z" fill="#FFCF2D"/>
<path d="M54.793 112.456C54.793 113.728 53.9398 114.682 52.8023 114.682C51.6647 114.682 50.8115 113.728 50.8115 112.456C50.8115 111.184 51.6647 110.23 52.8023 110.23C53.9398 110.23 54.793 111.29 54.793 112.456Z" fill="#FFCF2D"/>
<path d="M71.7617 112.456C71.7617 113.728 70.9086 114.682 69.771 114.682C68.6334 114.682 67.7803 113.728 67.7803 112.456C67.7803 111.184 68.6334 110.23 69.771 110.23C70.8138 110.23 71.7617 111.29 71.7617 112.456Z" fill="#FFCF2D"/>
<path d="M88.7305 112.456C88.7305 113.728 87.8773 114.682 86.7398 114.682C85.6022 114.682 84.749 113.728 84.749 112.456C84.749 111.184 85.6022 110.23 86.7398 110.23C87.8773 110.23 88.7305 111.29 88.7305 112.456Z" fill="#FFCF2D"/>
<path d="M105.604 112.456C105.604 113.728 104.751 114.682 103.613 114.682C102.476 114.682 101.623 113.728 101.623 112.456C101.623 111.184 102.476 110.23 103.613 110.23C104.751 110.23 105.604 111.29 105.604 112.456Z" fill="#FFCF2D"/>
<path d="M122.573 112.456C122.573 113.728 121.72 114.682 120.582 114.682C119.444 114.682 118.591 113.728 118.591 112.456C118.591 111.184 119.444 110.23 120.582 110.23C121.72 110.23 122.573 111.29 122.573 112.456Z" fill="#FFCF2D"/>
<path d="M139.542 112.456C139.542 113.728 138.689 114.682 137.551 114.682C136.414 114.682 135.561 113.728 135.561 112.456C135.561 111.184 136.414 110.23 137.551 110.23C138.594 110.23 139.542 111.29 139.542 112.456Z" fill="#FFCF2D"/>
</svg>
